{"title":"Arrow S03E06 Greek Subs 720p HDTV x264 - N3kr4","uid":11464119,"size":1287213722,"categoryP":"video","categoryS":"hd___movies","magnet":"?xt=urn:btih:105edcc6a2f853303e87c4260943dd0177f9e60f&amp;dn=Arrow+S03E06+Greek+Subs+720p+HDTV+x264+-+N3kr4&amp;tr=udp%3A%2F%2Ftracker.openbittorrent.com%3A80&amp;tr=udp%3A%2F%2Fopen.demonii.com%3A1337&amp;tr=udp%3A%2F%2Ftracker.coppersurfer.tk%3A6969&amp;tr=udp%3A%2F%2Fexodus.desync.com%3A6969","seeders":2,"leechers":0,"uploader":"Falcon.G13","files":1,"time":1416014470,"description":" &lt;a href=&quot;http://i.imgur.com/E4ZGY9p.jpg&quot; rel=&quot;nofollow&quot; target=&quot;_NEW&quot;&gt;http://i.imgur.com/E4ZGY9p.jpg&lt;/a&gt; &lt;a href=&quot;\nhttp://i.imgur.com/XedmPac.jpg&quot; rel=&quot;nofollow&quot; target=&quot;_NEW&quot;&gt;\nhttp://i.imgur.com/XedmPac.jpg&lt;/a&gt; &lt;a href=&quot;\nhttp://i.imgur.com/dVobxCU.jpg&quot; rel=&quot;nofollow&quot; target=&quot;_NEW&quot;&gt;\nhttp://i.imgur.com/dVobxCU.jpg&lt;/a&gt; &lt;a href=&quot;\nhttp://i.imgur.com/vSEaOR7.jpg&quot; rel=&quot;nofollow&quot; target=&quot;_NEW&quot;&gt;\nhttp://i.imgur.com/vSEaOR7.jpg&lt;/a&gt; &lt;a href=&quot;\nhttp://i.imgur.com/2gIptUV.jpg&quot; rel=&quot;nofollow&quot; target=&quot;_NEW&quot;&gt;\nhttp://i.imgur.com/2gIptUV.jpg&lt;/a&gt;\n\n\nGeneral\nComplete name :Arrow S03E06 Greek Subs 720p HDTV x264 - N3kr4.mp4\nFormat : MPEG-4\nFormat profile : Base Media\nCodec ID : isom\nFile size : 1.20 GiB\nDuration : 42mn 4s\nOverall bit rate : 4 079 Kbps\nWriting application : Lavf55.7.100\n\nVideo\nID : 1\nFormat : AVC\nFormat/Info : Advanced Video Codec\nFormat profile : &lt;a class=&quot;__cf_email__&quot; href=&quot;/cdn-cgi/l/email-protection&quot; data-cfemail=&quot;3d705c54537d7109130d&quot;&gt;[email&amp;#160;protected]&lt;/a&gt;&lt;script cf-hash='f9e31' type=&quot;text/javascript&quot;&gt;\n/* &lt;![CDATA[ */!function(){try{var t=&quot;currentScript&quot;in document?document.currentScript:function(){for(var t=document.getElementsByTagName(&quot;script&quot;),e=t.length;e--;)if(t[e].getAttribute(&quot;cf-hash&quot;))return t[e]}();if(t&amp;&amp;t.previousSibling){var e,r,n,i,c=t.previousSibling,a=c.getAttribute(&quot;data-cfemail&quot;);if(a){for(e=&quot;&quot;,r=parseInt(a.substr(0,2),16),n=2;a.length-n;n+=2)i=parseInt(a.substr(n,2),16)^r,e+=String.fromCharCode(i);e=document.createTextNode(e),c.parentNode.replaceChild(e,c)}}}catch(u){}}();/* ]]&gt; */&lt;/script&gt;\nFormat settings, CABAC : Yes\nFormat settings, ReFrames : 3 frames\nCodec ID : avc1\nCodec ID/Info : Advanced Video Coding\nDuration : 42mn 4s\nBit rate : 3 816 Kbps\nWidth : 1 280 pixels\nHeight : 720 pixels\nDisplay aspect ratio : 16:9\nFrame rate mode : Constant\nFrame rate : 23.976 fps\nColor space : YUV\nChroma subsampling : 4:2:0\nBit depth : 8 bits\nScan type : Progressive\nBits/(Pixel*Frame) : 0.173\nStream size : 1.12 GiB (94%)\nLanguage : English\n\nAudio\nID : 2\nFormat : AAC\nFormat/Info : Advanced Audio Codec\nFormat profile : LC\nCodec ID : 40\nDuration : 42mn 3s\nBit rate mode : Constant\nBit rate : 256 Kbps\nChannel(s) : 2 channels\nChannel positions : Front: L R\nSampling rate : 96.0 KHz\nCompression mode : Lossy\nStream size : 77.0 MiB (6%)","torrent":{"xt":"urn:btih:105edcc6a2f853303e87c4260943dd0177f9e60f","amp;dn":"Arrow+S03E06+Greek+Subs+720p+HDTV+x264+-+N3kr4","amp;tr":["udp%3A%2F%2Ftracker.openbittorrent.com%3A80","udp%3A%2F%2Fopen.demonii.com%3A1337","udp%3A%2F%2Ftracker.coppersurfer.tk%3A6969","udp%3A%2F%2Fexodus.desync.com%3A6969"],"infoHash":"105edcc6a2f853303e87c4260943dd0177f9e60f","infoHashBuffer":{"type":"Buffer","data":[16,94,220,198,162,248,83,48,62,135,196,38,9,67,221,1,119,249,230,15]},"announce":[],"urlList":[]}}